<?xml version="1.0" encoding="UTF-8"?>
<svg id="Layer_1" data-name="Layer 1" xmlns="http://www.w3.org/2000/svg" viewBox="0 0 743 829">
  <defs>
    <style>
      .cls-1 {
        fill: #ea3040;
      }

      .cls-2 {
        fill: #da2b3a;
      }

      .cls-3 {
        fill: #e94952;
      }

      .cls-4 {
        fill: #ed3543;
      }

      .cls-5 {
        fill: #bd3b41;
      }

      .cls-6 {
        fill: #d83741;
      }

      .cls-7 {
        fill: #b92933;
      }

      .cls-8 {
        fill: #bf4c4f;
      }

      .cls-9 {
        fill: #403e3d;
      }

      .cls-10 {
        fill: #393736;
      }

      .cls-11 {
        fill: #d3464c;
      }
    </style>
  </defs>
  <path class="cls-7" d="M469.36,756.73c-22.19,14.13-46.9,21.35-72.57,25.06-43.75,6.32-86.77,3.45-128.32-12.87-46.69-18.33-80.36-51.71-107.03-93.04-6.49-10.06-12.69-20.29-18.08-31.05-2.44-4.88-1.61-7.17,2.65-9.55,6.99-3.89,13.87-7.96,20.8-11.96,5.43,3.85,8.43,9.7,12.25,14.88,24.35,33.07,49.3,65.18,87.05,84.89,29.45,15.38,59.27,27.25,92.87,30.88,33.66,3.63,66.77,4.32,100.01-2.04,4.35-.83,8.87-1,10.37,4.8Z"/>
  <path class="cls-4" d="M369.78,504.3c-29.73-23.92-59.07-48.32-87.47-73.82-1.58-1.42-2.82-3.21-4.21-4.83,4.93-.98,6.33-4.47,6.02-8.9-.5-7.35-1.3-14.62-5.02-21.28-15.55-27.86-32.39-54.92-50.46-81.21-1.87-5.59-3.74-11.19-5.61-16.78,5.96,.47,5.75,8.22,11.1,9.4,2.41,4.95,4.56,9.99,7.82,14.55,20.28,28.4,44.49,53.33,68.7,78.27,36.34,37.42,79.68,66.59,118.81,100.74,15.13,13.21,28.08,27.42,34.57,46.75,1.05,3.15,1.58,6.74,5.36,8.13-.02,1.74-.03,3.48-.05,5.21-.59,1.89-1.18,3.78-1.77,5.67-.93,13.22-5.78,24.44-16.98,32.18-2.96,2.04-6.37,5.18-9.96,3.66-4.26-1.8-1.98-6.45-2.23-9.92,4.96-.1,8.8-2.46,11.98-6.05,9.75-11,13.05-39.96-.95-52.93-11.24-10.41-23.34-19.99-37.21-26.89-13.81-6.87-27.93-8.99-42.43-1.96Z"/>
  <path class="cls-2" d="M206.4,349.09c-37-53.57-46.05-110.2-18.58-170.76,1.38-3.04,3.43-5.78,5.17-8.66,4.91,.26,5.96,3.44,5.93,7.62-.06,8.63,0,17.27,0,25.9-8.91,19.6-4.06,38.31,2.96,57.24,5.87,15.83,10.46,32.14,15.62,48.24-2.25,13.88-2.66,28.25-11.1,40.43Z"/>
  <path class="cls-2" d="M484.33,243.92c-8.05,7.46-16.28,14.75-24.09,22.46-3.67,3.62-5.57,2.89-8.39-.94-12.24-16.63-26.32-31.44-42.87-43.99-12.01-9.11-25.36-14.84-39.64-18.91-1.93-9.32,2.75-14.78,15.95-17.66,17.41-3.79,32.94,2.04,47.24,11.04,20.2,12.72,36.92,29.41,51.8,47.99Z"/>
  <path class="cls-1" d="M206.4,349.09c8.44-12.18,8.85-26.56,11.1-40.43,3.71,1.87,7.43,3.74,11.15,5.61,18.07,26.29,34.91,53.35,50.46,81.21,3.72,6.66,4.51,13.93,5.02,21.28,.3,4.43-1.09,7.91-6.02,8.9-15.61-11.94-28.67-26.55-42.41-40.44-10.93-11.06-21.12-22.79-29.29-36.12Z"/>
  <path class="cls-5" d="M482.45,747.84c-3.76,3.85-7.73,7.39-13.09,8.89-1.51-5.8-6.02-5.63-10.37-4.79-33.24,6.36-66.35,5.67-100.01,2.04-33.6-3.62-63.42-15.5-92.87-30.88-37.74-19.71-62.7-51.82-87.05-84.89-3.81-5.18-6.81-11.03-12.24-14.88,5.55-3.58,11.11-7.15,16.67-10.73,14.86,27.42,31.55,53.92,53.86,75.63,21.46,20.88,45.8,38.91,74.89,48.42,35.79,11.7,72.6,15.67,110.16,12.02,3.98-.39,7.98-.5,11.97-.74,3.5,2.02,6.77,2.81,9.06-1.68l3.78-.36c9.05,3.06,17.9-.86,26.88-.84,3.33,.01,6.74-1.76,8.36,2.79Z"/>
  <path class="cls-1" d="M369.78,504.3c14.5-7.03,28.62-4.91,42.43,1.96,13.87,6.9,25.97,16.48,37.21,26.89,14,12.96,10.7,41.93,.95,52.93-3.18,3.59-7.02,5.95-11.98,6.05-.67-.63-1.34-1.25-2.01-1.88-3.84-18.98-13.64-34.69-27.06-48.2-11.86-11.94-24.16-23.45-36.26-35.16-.76-.75-1.52-1.49-2.29-2.24l-.6,.14-.38-.49Z"/>
  <path class="cls-9" d="M600.78,545.84c-2.28-6.14-.61-12.64-1.53-18.8-3.26-21.8-9.74-42.55-22.6-60.86-2.92-8.91-9.63-15.41-14.62-23.01-17.66-26.94-42.11-47.28-66.2-67.96-9.22-10.39-20.5-18.46-30.95-27.44-24.21-20.8-48.64-41.33-72.99-61.97-2.37-2.38-4.5-5.08-7.15-7.08-18.3-13.76-33.18-30.48-44.6-50.31l-2.85-10.5c.66-2.62,.46-5.11-1.09-7.4,1.17-2.57-1.57-6.02,1.8-8.11-.07-.42-.18-.84-.31-1.26,3.59-9.7,9.42-17.6,18.43-22.95,25.32-17.04,51.19-13.88,76.7-1.11,26.27,13.15,44.36,35.41,61.76,58.19,5.4-1.22,7.46-5.99,10.42-9.8,2.16-1.42,4.31-2.83,6.46-4.26,16.19-13.38,32.02-27.18,47.1-41.83,8.87-7.58,17.56-15.39,26.67-22.65,4.85-3.86,3.55-6.52-.01-10.18-10.11-10.37-19.73-21.22-29.99-31.44-47.8-47.67-104.1-74.43-173.08-70.66-54.94,3.01-100.39,24.37-135.16,67.45-1.86,1.63-3.73,3.26-5.59,4.88,.16,.63,0,1.16-.43,1.61l-.39,.71c-11.31,16.09-19.25,33.82-25.32,52.45-.89,4.31-1.78,8.62-2.67,12.93-.3,3.11-.6,6.21-.9,9.32-2.81,16.21-1.73,32.76,1.01,48.45,2.58,14.76,8.25,29.4,15.27,43.13,2.46,4.82,5.83,9.37,6.35,15.06,10.66,12.85,19.21,27.35,30.9,39.39,2.53,2.6,5.04,5.23,7.55,7.85,18.51,24.12,42.94,42.09,65.16,62.31,35.73,32.51,75.54,60.4,108.87,95.64,7.98,8.44,16.86,16.44,19.12,28.76,1.05,.35,1.99,.8,1.96,2.14,.25,.38,.32,.79,.2,1.23,11.64,16.71,9.18,44.51-5.76,61.31-7.79,8.76-16.59,16.38-27.67,20.88-4.01,1.77-8.01,3.53-12.02,5.29-1.06,.24-2.13,.48-3.2,.72-5.55,.72-11.1,1.44-16.65,2.16-22.35,.56-42.26-6.2-60.08-19.64-20.25-15.29-35-35.21-47.92-56.63-2.6-4.31-4.45-6.65-9.8-3.29-20.54,12.88-41.32,25.37-62.01,38-4.98,2.96-9.96,5.92-14.95,8.88-2.82,1.79-5.64,3.59-8.46,5.38-2.12,1.28-4.23,2.57-6.35,3.85-3.74,2.03-8.59,2.71-9.72,7.93,14.86,27.42,31.55,53.92,53.86,75.63,21.46,20.88,45.8,38.91,74.89,48.42,35.79,11.7,72.6,15.67,110.16,12.02,3.98-.39,7.98-.5,11.97-.74,2.87-1.37,5.88-1.99,9.06-1.68l3.78-.36c23.35-5.29,45.43-13.88,66.23-25.73,1.52-1.23,3.04-2.46,4.57-3.7,6.08-2.45,10.81-6.91,15.75-10.96,26.12-21.42,46.26-47.15,56.82-79.69,9.6-25.86,11.09-52.76,10.2-79.97Zm-125.77-31.5c2.02,.45,3.25,1.69,3.7,3.71-2.02-.45-3.25-1.69-3.7-3.71Z"/>
  <path class="cls-11" d="M494.58,235.27c-2.12,1.77-4.25,3.53-6.37,5.3-11.54-16.77-25.08-31.91-40.51-45.03-18.19-15.47-39.24-23.86-63.74-19.99-13.51,2.14-27.62,12.19-27.46,25.49-2.57-.03-5.14-.06-7.71-.09-.21-8.44,5.92-14.84,7.33-22.76,25.32-17.04,51.19-13.88,76.7-1.11,26.27,13.15,44.36,35.41,61.76,58.19Z"/>
  <path class="cls-6" d="M356.5,201.04c-.16-13.3,13.95-23.35,27.47-25.49,24.5-3.88,45.54,4.52,63.73,19.99,15.43,13.12,28.97,28.26,40.51,45.03-1.29,1.12-2.59,2.23-3.88,3.35-14.88-18.58-31.61-35.28-51.8-47.99-14.3-9-29.83-14.84-47.24-11.04-13.2,2.88-17.88,8.33-15.95,17.66-4.28-.5-8.56-.99-12.84-1.49Z"/>
  <path class="cls-11" d="M234.32,300.44c-.06,2.15-.12,4.3-.18,6.44h0c-.34-.06-.65-.16-.94-.29-.3-.12-.57-.26-.83-.43s-.5-.35-.73-.54c-.16-.14-.32-.29-.47-.44-.49-.5-.92-1.07-1.32-1.67-.19-.26-.36-.52-.52-.79-.09-.14-.17-.27-.26-.41-.2-.31-.4-.63-.61-.94-.06-.09-.11-.17-.16-.25-.16-.24-.32-.47-.49-.7-.07-.1-.15-.2-.23-.3-.13-.17-.26-.33-.4-.49-.62-.7-1.33-1.29-2.22-1.68-.12-.05-.24-.1-.37-.15-.11-.04-.22-.07-.34-.1-.1-.03-.2-.06-.3-.08-.12-.03-.24-.05-.37-.07-.17-.03-.35-.06-.54-.07,.08-4.21-2.18-7.62-3.78-11.28-11.62-26.45-19.96-53.64-18.29-83.03,3.12-13.67,6.22-27.35,9.37-41.01,1.31-5.71,2.69-11.39-.36-17,.44-.51,.88-1.02,1.33-1.53,6.68,3.05,4.23,8.76,3.6,13.59-.64,4.86-2.1,9.6,.35,14.33-.89,4.31-1.78,8.62-2.67,12.93-3.42,2.8-2.7,6.01-.9,9.32-2.81,16.21-1.73,32.76,1.01,48.45,2.58,14.76,8.25,29.4,15.27,43.13,2.46,4.82,5.83,9.37,6.35,15.06Z"/>
  <path class="cls-11" d="M462.32,599.07c-7.79,8.76-16.59,16.38-27.67,20.88,1.15-9.87,2.55-19.72,1.73-29.71,.67,.63,1.34,1.26,2.01,1.88,.05,.68,0,1.4-.07,2.14-.01,.1-.02,.2-.03,.3l-.15,1.29c-.02,.16-.03,.32-.05,.48-.02,.16-.03,.32-.04,.48-.04,.43-.05,.86-.03,1.27,0,.11,.01,.22,.02,.33,.02,.34,.07,.67,.16,.99,.02,.08,.04,.15,.07,.23,.03,.11,.07,.21,.12,.32,.05,.12,.11,.24,.17,.35,.07,.13,.15,.25,.24,.37,.08,.12,.18,.23,.28,.34,.08,.08,.16,.16,.25,.24,.34,.31,.77,.57,1.3,.8,3.58,1.51,6.99-1.62,9.95-3.66,11.21-7.74,16.05-18.96,16.99-32.19,3.4-1.01,4.05-2.88,1.77-5.66,0-1.74,.03-3.48,.05-5.22,.62-5.94-.46-11.74-1.31-17.56,11.64,16.71,9.18,44.51-5.76,61.31Z"/>
  <path class="cls-8" d="M513.44,720.16c-8.28,11.52-18.11,21.31-30.99,27.68-1.62-4.55-5.03-2.78-8.36-2.79-8.98-.02-17.83,3.9-26.88,.84,23.35-5.29,45.43-13.88,66.23-25.73Z"/>
  <path class="cls-5" d="M209.98,145.16c3.06,5.6,1.67,11.29,.36,17-3.15,13.67-6.25,27.34-9.37,41.01-.69,0-1.37,0-2.05,0,0-8.63-.06-17.27,0-25.9,.03-4.18-1.02-7.36-5.93-7.62,4.21-9.17,10.06-17.21,16.98-24.5Z"/>
  <path class="cls-8" d="M240.58,119.1c-11.31,16.09-19.25,33.82-25.32,52.45-2.45-4.73-.99-9.47-.35-14.33,.63-4.83,3.08-10.54-3.6-13.59,8.62-9.53,16.28-20.2,29.27-24.53Z"/>
  <path class="cls-8" d="M356.12,178.19c-1.41,7.92-7.54,14.32-7.33,22.76-3.6,.48-7.19,.97-10.79,1.45-.07-.42-.18-.84-.31-1.26,3.59-9.7,9.42-17.6,18.43-22.95Z"/>
  <path class="cls-4" d="M370.77,504.65c.76,.75,1.53,1.49,2.29,2.24-.76-.75-1.53-1.49-2.29-2.24Z"/>
  <path class="cls-8" d="M240.97,118.39c.14-.53,.29-1.07,.43-1.61,.16,.63,0,1.16-.43,1.61Z"/>
  <path class="cls-3" d="M469.39,555.32c-3.79-1.39-4.31-4.98-5.37-8.13-6.48-19.33-19.43-33.54-34.56-46.75-39.13-34.15-82.47-63.32-118.81-100.74-24.21-24.93-48.42-49.87-68.7-78.27-3.25-4.56-5.4-9.59-7.81-14.54h0c.06-2.15,.12-4.3,.18-6.45,10.66,12.85,19.21,27.35,30.9,39.39,2.53,2.6,5.04,5.23,7.55,7.85,18.51,24.12,42.94,42.09,65.16,62.31,35.73,32.51,75.54,60.4,108.87,95.64,7.98,8.44,16.86,16.44,19.12,28.76,.65,.71,1.3,1.43,1.96,2.14,.25,.38,.32,.79,.2,1.23,.85,5.82,1.93,11.62,1.31,17.56Z"/>
  <path class="cls-10" d="M478.71,518.05c-2.02-.45-3.25-1.69-3.7-3.71,2.02,.45,3.25,1.69,3.7,3.71Z"/>
  <path class="cls-11" d="M467.88,536.53c-.66-.71-1.31-1.43-1.96-2.14,1.05,.35,1.99,.8,1.96,2.14Z"/>
  <path class="cls-6" d="M198.92,203.18c.68,0,1.37,0,2.05,0-1.66,29.39,6.67,56.58,18.29,83.03,1.61,3.66,3.86,7.07,3.78,11.28,1.87,5.59,3.74,11.19,5.61,16.78-3.71-1.87-7.43-3.74-11.14-5.61-5.16-16.1-9.75-32.41-15.62-48.24-7.02-18.93-11.87-37.64-2.96-57.24Z"/>
  <path class="cls-3" d="M469.34,560.54c2.28,2.79,1.63,4.66-1.77,5.67,.59-1.89,1.18-3.78,1.77-5.67Z"/>
  <path class="cls-8" d="M443.43,746.25c-2.29,4.49-5.56,3.7-9.06,1.68,2.87-1.37,5.88-1.99,9.06-1.68Z"/>
  <path class="cls-8" d="M212.59,184.48c-.3,3.11-.6,6.21-.9,9.32-1.8-3.31-2.52-6.52,.9-9.32Z"/>
</svg>