<?xml version="1.0" standalone="no"?>
<!DOCTYPE svg PUBLIC "-//W3C//DTD SVG 20010904//EN"
 "http://www.w3.org/TR/2001/REC-SVG-20010904/DTD/svg10.dtd">
<svg version="1.0" xmlns="http://www.w3.org/2000/svg"
 width="360.000000pt" height="360.000000pt" viewBox="0 0 360.000000 360.000000"
 preserveAspectRatio="xMidYMid meet">

<g transform="translate(0.000000,360.000000) scale(0.100000,-0.100000)"
fill="#c69 " stroke="none">
<path d="M1652 3588 c-814 -57 -1501 -696 -1628 -1516 -22 -144 -22 -402 0
-546 72 -460 323 -880 693 -1158 184 -138 370 -232 582 -293 712 -205 1470 43
1923 629 163 211 271 444 335 723 26 112 27 132 27 373 0 245 -1 260 -28 374
-89 377 -245 658 -513 917 -374 363 -854 534 -1391 497z m933 -462 c118 -36
178 -69 245 -136 78 -77 102 -133 108 -246 2 -50 -1 -114 -6 -141 -49 -225
-236 -449 -477 -570 -227 -115 -596 -158 -763 -91 -77 32 -142 81 -176 133
-47 71 -22 112 35 56 62 -63 162 -94 294 -93 434 4 895 339 895 652 0 75 -16
116 -63 157 -144 127 -496 121 -852 -14 -194 -74 -494 -248 -640 -372 -173
-148 -269 -329 -250 -477 16 -128 106 -240 340 -421 72 -56 153 -122 180 -147
39 -36 56 -45 75 -41 178 35 366 32 474 -8 153 -57 259 -170 283 -303 22 -116
-16 -202 -116 -266 -81 -51 -113 -27 -40 31 58 47 79 86 79 149 0 129 -101
231 -273 276 -85 22 -203 29 -282 16 -38 -6 -71 -12 -72 -14 -1 -1 5 -24 13
-51 21 -68 21 -232 0 -315 -27 -106 -73 -187 -156 -271 -142 -144 -331 -207
-509 -168 -88 19 -161 126 -161 239 0 53 27 149 57 200 59 102 230 241 441
359 l93 53 -43 32 c-24 18 -100 72 -170 120 -163 113 -300 228 -361 302 -26
33 -66 96 -89 141 -36 72 -41 91 -41 151 0 332 436 744 1043 985 254 101 388
127 625 123 150 -3 181 -7 260 -30z"/>
<path d="M1342 1141 c-217 -130 -337 -271 -349 -411 -7 -77 13 -100 90 -100
158 0 337 180 369 372 11 71 1 179 -18 185 -5 2 -47 -19 -92 -46z"/>
</g>
</svg>
